<svg width="454" height="861" viewBox="0 0 454 861" fill="none" xmlns="http://www.w3.org/2000/svg">
<g opacity="0.4">
<g opacity="0.8">
<g opacity="0.8">
<path opacity="0.8" d="M185.609 0.92334C173.988 0.92334 169.227 10.4971 169.227 10.4971C169.227 10.4971 164.466 0.92334 152.846 0.92334C141.225 0.92334 135.193 12.3369 135.193 21.3297C135.193 35.5875 150.591 47.7151 169.215 61.5009C187.84 47.7272 203.238 35.5996 203.238 21.3297C203.262 12.3369 197.23 0.92334 185.609 0.92334Z" stroke="white" stroke-width="0.4755" stroke-miterlimit="10" stroke-linecap="round" stroke-linejoin="round"/>
<path opacity="0.8" d="M181.016 27.4541H172.945V19.3206H165.51V27.4541H157.439V34.9703H165.51V43.1038H172.945V34.9703H181.016V27.4541Z" stroke="white" stroke-width="0.4755" stroke-miterlimit="10" stroke-linecap="round" stroke-linejoin="round"/>
<g opacity="0.8">
<path opacity="0.8" d="M139.366 21.3296C139.366 16.4278 141.777 9.75876 146.862 6.73291" stroke="white" stroke-width="0.4755" stroke-miterlimit="10" stroke-linecap="round" stroke-linejoin="round"/>
<path opacity="0.8" d="M142.029 30.5524C141.117 28.9306 140.422 27.3208 139.978 25.699" stroke="white" stroke-width="0.4755" stroke-miterlimit="10" stroke-linecap="round" stroke-linejoin="round"/>
</g>
</g>
<g opacity="0.8">
<path opacity="0.8" d="M62.0395 22.8547H40.3092V0.92334H23.7477V22.8547H2.01752V39.5695H23.7477V61.5009H40.3092V39.5695H62.0395V22.8547Z" stroke="white" stroke-width="0.4755" stroke-miterlimit="10" stroke-linecap="round" stroke-linejoin="round"/>
<path opacity="0.8" d="M26.7458 5.24438V17.6504" stroke="white" stroke-width="0.4755" stroke-miterlimit="10" stroke-linecap="round" stroke-linejoin="round"/>
</g>
<g opacity="0.8">
<path opacity="0.8" d="M459.995 0.92334C448.375 0.92334 443.614 10.4971 443.614 10.4971C443.614 10.4971 438.853 0.92334 427.232 0.92334C415.611 0.92334 409.579 12.3369 409.579 21.3297C409.579 35.5875 424.977 47.7151 443.602 61.5009C462.226 47.7272 477.624 35.5996 477.624 21.3297C477.648 12.3369 471.616 0.92334 459.995 0.92334Z" stroke="white" stroke-width="0.4755" stroke-miterlimit="10" stroke-linecap="round" stroke-linejoin="round"/>
<path opacity="0.8" d="M455.402 27.4541H447.343V19.3206H439.896V27.4541H431.837V34.9703H439.896V43.1038H447.343V34.9703H455.402V27.4541Z" stroke="white" stroke-width="0.4755" stroke-miterlimit="10" stroke-linecap="round" stroke-linejoin="round"/>
<g opacity="0.8">
<path opacity="0.8" d="M413.752 21.3296C413.752 16.4278 416.163 9.75876 421.248 6.73291" stroke="white" stroke-width="0.4755" stroke-miterlimit="10" stroke-linecap="round" stroke-linejoin="round"/>
<path opacity="0.8" d="M416.427 30.5524C415.515 28.9306 414.82 27.3208 414.376 25.699" stroke="white" stroke-width="0.4755" stroke-miterlimit="10" stroke-linecap="round" stroke-linejoin="round"/>
</g>
</g>
<g opacity="0.8">
<path opacity="0.8" d="M336.437 22.8547H314.707V0.92334H298.146V22.8547H276.415V39.5695H298.146V61.5009H314.707V39.5695H336.437V22.8547Z" stroke="white" stroke-width="0.4755" stroke-miterlimit="10" stroke-linecap="round" stroke-linejoin="round"/>
<path opacity="0.8" d="M301.132 5.24438V17.6504" stroke="white" stroke-width="0.4755" stroke-miterlimit="10" stroke-linecap="round" stroke-linejoin="round"/>
</g>
</g>
<g opacity="0.8">
<g opacity="0.8">
<path opacity="0.8" d="M48.416 135.332C36.7954 135.332 32.0344 144.906 32.0344 144.906C32.0344 144.906 27.2734 135.332 15.6528 135.332C4.03218 135.332 -2 146.745 -2 155.738C-2 169.996 13.3982 182.124 32.0224 195.909C50.6466 182.136 66.0449 170.008 66.0449 155.738C66.0569 146.745 60.0367 135.332 48.416 135.332Z" stroke="white" stroke-width="0.4755" stroke-miterlimit="10" stroke-linecap="round" stroke-linejoin="round"/>
<path opacity="0.8" d="M43.823 161.875H35.7521V153.729H28.3168V161.875H20.2459V169.379H28.3168V177.524H35.7521V169.379H43.823V161.875Z" stroke="white" stroke-width="0.4755" stroke-miterlimit="10" stroke-linecap="round" stroke-linejoin="round"/>
<g opacity="0.8">
<path opacity="0.8" d="M2.16138 155.75C2.16138 150.848 4.57185 144.179 9.65663 141.154" stroke="white" stroke-width="0.4755" stroke-miterlimit="10" stroke-linecap="round" stroke-linejoin="round"/>
<path opacity="0.8" d="M4.83568 164.973C3.92425 163.351 3.22869 161.741 2.78497 160.12" stroke="white" stroke-width="0.4755" stroke-miterlimit="10" stroke-linecap="round" stroke-linejoin="round"/>
</g>
</g>
<g opacity="0.8">
<path opacity="0.8" d="M199.244 157.263H177.502V135.332H160.953V157.263H139.222V173.978H160.953V195.909H177.502V173.978H199.244V157.263Z" stroke="white" stroke-width="0.4755" stroke-miterlimit="10" stroke-linecap="round" stroke-linejoin="round"/>
<path opacity="0.8" d="M163.939 139.665V152.059" stroke="white" stroke-width="0.4755" stroke-miterlimit="10" stroke-linecap="round" stroke-linejoin="round"/>
</g>
<g opacity="0.8">
<path opacity="0.8" d="M322.802 135.332C311.182 135.332 306.421 144.906 306.421 144.906C306.421 144.906 301.66 135.332 290.039 135.332C278.418 135.332 272.386 146.745 272.386 155.738C272.386 169.996 287.784 182.124 306.409 195.909C325.033 182.136 340.431 170.008 340.431 155.738C340.455 146.745 334.423 135.332 322.802 135.332Z" stroke="white" stroke-width="0.4755" stroke-miterlimit="10" stroke-linecap="round" stroke-linejoin="round"/>
<path opacity="0.8" d="M318.209 161.875H310.15V153.729H302.703V161.875H294.644V169.379H302.703V177.524H310.15V169.379H318.209V161.875Z" stroke="white" stroke-width="0.4755" stroke-miterlimit="10" stroke-linecap="round" stroke-linejoin="round"/>
<g opacity="0.8">
<path opacity="0.8" d="M276.559 155.75C276.559 150.848 278.97 144.179 284.055 141.154" stroke="white" stroke-width="0.4755" stroke-miterlimit="10" stroke-linecap="round" stroke-linejoin="round"/>
<path opacity="0.8" d="M279.234 164.973C278.322 163.351 277.627 161.741 277.183 160.12" stroke="white" stroke-width="0.4755" stroke-miterlimit="10" stroke-linecap="round" stroke-linejoin="round"/>
</g>
</g>
<g opacity="0.8">
<path opacity="0.8" d="M473.63 157.263H451.9V135.332H435.339V157.263H413.609V173.978H435.339V195.909H451.9V173.978H473.63V157.263Z" stroke="white" stroke-width="0.4755" stroke-miterlimit="10" stroke-linecap="round" stroke-linejoin="round"/>
<path opacity="0.8" d="M438.325 139.665V152.059" stroke="white" stroke-width="0.4755" stroke-miterlimit="10" stroke-linecap="round" stroke-linejoin="round"/>
</g>
</g>
<g opacity="0.8">
<g opacity="0.8">
<path opacity="0.8" d="M185.609 269.752C173.988 269.752 169.227 279.326 169.227 279.326C169.227 279.326 164.466 269.752 152.846 269.752C141.225 269.752 135.193 281.166 135.193 290.159C135.193 304.417 150.591 316.544 169.215 330.33C187.84 316.556 203.238 304.429 203.238 290.159C203.262 281.154 197.23 269.752 185.609 269.752Z" stroke="white" stroke-width="0.4755" stroke-miterlimit="10" stroke-linecap="round" stroke-linejoin="round"/>
<path opacity="0.8" d="M181.016 296.283H172.945V288.137H165.51V296.283H157.439V303.787H165.51V311.933H172.945V303.787H181.016V296.283Z" stroke="white" stroke-width="0.4755" stroke-miterlimit="10" stroke-linecap="round" stroke-linejoin="round"/>
<g opacity="0.8">
<path opacity="0.8" d="M139.366 290.159C139.366 285.257 141.777 278.588 146.862 275.562" stroke="white" stroke-width="0.4755" stroke-miterlimit="10" stroke-linecap="round" stroke-linejoin="round"/>
<path opacity="0.8" d="M142.029 299.382C141.117 297.76 140.422 296.15 139.978 294.528" stroke="white" stroke-width="0.4755" stroke-miterlimit="10" stroke-linecap="round" stroke-linejoin="round"/>
</g>
</g>
<g opacity="0.8">
<path opacity="0.8" d="M62.0394 291.684H40.3092V269.752H23.7477V291.684H2.01746V308.386H23.7477V330.33H40.3092V308.386H62.0394V291.684Z" stroke="white" stroke-width="0.4755" stroke-miterlimit="10" stroke-linecap="round" stroke-linejoin="round"/>
<path opacity="0.8" d="M26.7458 274.073V286.479" stroke="white" stroke-width="0.4755" stroke-miterlimit="10" stroke-linecap="round" stroke-linejoin="round"/>
</g>
<g opacity="0.8">
<path opacity="0.8" d="M459.995 269.752C448.375 269.752 443.614 279.326 443.614 279.326C443.614 279.326 438.853 269.752 427.232 269.752C415.611 269.752 409.579 281.166 409.579 290.159C409.579 304.417 424.977 316.544 443.602 330.33C462.226 316.556 477.624 304.429 477.624 290.159C477.648 281.154 471.616 269.752 459.995 269.752Z" stroke="white" stroke-width="0.4755" stroke-miterlimit="10" stroke-linecap="round" stroke-linejoin="round"/>
<path opacity="0.8" d="M455.402 296.283H447.343V288.137H439.896V296.283H431.837V303.787H439.896V311.933H447.343V303.787H455.402V296.283Z" stroke="white" stroke-width="0.4755" stroke-miterlimit="10" stroke-linecap="round" stroke-linejoin="round"/>
<g opacity="0.8">
<path opacity="0.8" d="M413.753 290.159C413.753 285.257 416.163 278.588 421.248 275.562" stroke="white" stroke-width="0.4755" stroke-miterlimit="10" stroke-linecap="round" stroke-linejoin="round"/>
<path opacity="0.8" d="M416.427 299.382C415.515 297.76 414.82 296.15 414.376 294.528" stroke="white" stroke-width="0.4755" stroke-miterlimit="10" stroke-linecap="round" stroke-linejoin="round"/>
</g>
</g>
<g opacity="0.8">
<path opacity="0.8" d="M336.437 291.684H314.707V269.752H298.146V291.684H276.416V308.386H298.146V330.33H314.707V308.386H336.437V291.684Z" stroke="white" stroke-width="0.4755" stroke-miterlimit="10" stroke-linecap="round" stroke-linejoin="round"/>
<path opacity="0.8" d="M301.132 274.073V286.479" stroke="white" stroke-width="0.4755" stroke-miterlimit="10" stroke-linecap="round" stroke-linejoin="round"/>
</g>
</g>
<g opacity="0.8">
<g opacity="0.8">
<path opacity="0.8" d="M48.416 404.161C36.7954 404.161 32.0344 413.735 32.0344 413.735C32.0344 413.735 27.2734 404.161 15.6528 404.161C4.03218 404.161 -2 415.574 -2 424.567C-2 438.825 13.3982 450.953 32.0224 464.738C50.6466 450.965 66.0449 438.837 66.0449 424.567C66.0569 415.574 60.0367 404.161 48.416 404.161Z" stroke="white" stroke-width="0.4755" stroke-miterlimit="10" stroke-linecap="round" stroke-linejoin="round"/>
<path opacity="0.8" d="M43.823 430.691H35.7521V422.558H28.3168V430.691H20.2459V438.208H28.3168V446.341H35.7521V438.208H43.823V430.691Z" stroke="white" stroke-width="0.4755" stroke-miterlimit="10" stroke-linecap="round" stroke-linejoin="round"/>
<g opacity="0.8">
<path opacity="0.8" d="M2.16138 424.567C2.16138 419.665 4.57185 412.996 9.65663 409.97" stroke="white" stroke-width="0.4755" stroke-miterlimit="10" stroke-linecap="round" stroke-linejoin="round"/>
<path opacity="0.8" d="M4.83568 433.79C3.92425 432.168 3.22869 430.558 2.78497 428.937" stroke="white" stroke-width="0.4755" stroke-miterlimit="10" stroke-linecap="round" stroke-linejoin="round"/>
</g>
</g>
<g opacity="0.65">
<path opacity="0.65" d="M199.244 426.092H177.502V404.161H160.953V426.092H139.222V442.807H160.953V464.738H177.502V442.807H199.244V426.092Z" stroke="white" stroke-width="0.4755" stroke-miterlimit="10" stroke-linecap="round" stroke-linejoin="round"/>
<path opacity="0.65" d="M163.939 408.482V420.888" stroke="white" stroke-width="0.4755" stroke-miterlimit="10" stroke-linecap="round" stroke-linejoin="round"/>
</g>
<g opacity="0.65">
<path opacity="0.65" d="M322.802 404.161C311.182 404.161 306.421 413.735 306.421 413.735C306.421 413.735 301.66 404.161 290.039 404.161C278.418 404.161 272.386 415.574 272.386 424.567C272.386 438.825 287.784 450.953 306.409 464.738C325.033 450.965 340.431 438.837 340.431 424.567C340.455 415.574 334.423 404.161 322.802 404.161Z" stroke="white" stroke-width="0.4755" stroke-miterlimit="10" stroke-linecap="round" stroke-linejoin="round"/>
<path opacity="0.65" d="M318.209 430.691H310.15V422.558H302.703V430.691H294.644V438.208H302.703V446.341H310.15V438.208H318.209V430.691Z" stroke="white" stroke-width="0.4755" stroke-miterlimit="10" stroke-linecap="round" stroke-linejoin="round"/>
<g opacity="0.65">
<path opacity="0.65" d="M276.559 424.567C276.559 419.665 278.97 412.996 284.055 409.97" stroke="white" stroke-width="0.4755" stroke-miterlimit="10" stroke-linecap="round" stroke-linejoin="round"/>
<path opacity="0.65" d="M279.234 433.79C278.322 432.168 277.627 430.558 277.183 428.937" stroke="white" stroke-width="0.4755" stroke-miterlimit="10" stroke-linecap="round" stroke-linejoin="round"/>
</g>
</g>
<g opacity="0.65">
<path opacity="0.65" d="M473.63 426.092H451.9V404.161H435.339V426.092H413.609V442.807H435.339V464.738H451.9V442.807H473.63V426.092Z" stroke="white" stroke-width="0.4755" stroke-miterlimit="10" stroke-linecap="round" stroke-linejoin="round"/>
<path opacity="0.65" d="M438.325 408.482V420.888" stroke="white" stroke-width="0.4755" stroke-miterlimit="10" stroke-linecap="round" stroke-linejoin="round"/>
</g>
</g>
<g opacity="0.8">
<g opacity="0.65">
<path opacity="0.65" d="M185.609 538.569C173.988 538.569 169.227 548.143 169.227 548.143C169.227 548.143 164.466 538.569 152.846 538.569C141.225 538.569 135.193 549.983 135.193 558.976C135.193 573.233 150.591 585.361 169.215 599.147C187.84 585.373 203.238 573.245 203.238 558.976C203.262 549.983 197.23 538.569 185.609 538.569Z" stroke="white" stroke-width="0.4755" stroke-miterlimit="10" stroke-linecap="round" stroke-linejoin="round"/>
<path opacity="0.65" d="M181.016 565.1H172.945V556.966H165.51V565.1H157.439V572.616H165.51V580.75H172.945V572.616H181.016V565.1Z" stroke="white" stroke-width="0.4755" stroke-miterlimit="10" stroke-linecap="round" stroke-linejoin="round"/>
<g opacity="0.65">
<path opacity="0.65" d="M139.366 558.988C139.366 554.086 141.777 547.417 146.862 544.391" stroke="white" stroke-width="0.4755" stroke-miterlimit="10" stroke-linecap="round" stroke-linejoin="round"/>
<path opacity="0.65" d="M142.029 568.198C141.117 566.577 140.422 564.967 139.978 563.345" stroke="white" stroke-width="0.4755" stroke-miterlimit="10" stroke-linecap="round" stroke-linejoin="round"/>
</g>
</g>
<g opacity="0.8">
<path opacity="0.8" d="M62.0394 560.501H40.3092V538.569H23.7477V560.501H2.01746V577.215H23.7477V599.147H40.3092V577.215H62.0394V560.501Z" stroke="white" stroke-width="0.4755" stroke-miterlimit="10" stroke-linecap="round" stroke-linejoin="round"/>
<path opacity="0.8" d="M26.7458 542.89V555.296" stroke="white" stroke-width="0.4755" stroke-miterlimit="10" stroke-linecap="round" stroke-linejoin="round"/>
</g>
<g opacity="0.65">
<path opacity="0.65" d="M459.995 538.569C448.375 538.569 443.614 548.143 443.614 548.143C443.614 548.143 438.853 538.569 427.232 538.569C415.611 538.569 409.579 549.983 409.579 558.976C409.579 573.233 424.977 585.361 443.602 599.147C462.226 585.373 477.624 573.245 477.624 558.976C477.648 549.983 471.616 538.569 459.995 538.569Z" stroke="white" stroke-width="0.4755" stroke-miterlimit="10" stroke-linecap="round" stroke-linejoin="round"/>
<path opacity="0.65" d="M455.402 565.1H447.343V556.966H439.896V565.1H431.837V572.616H439.896V580.75H447.343V572.616H455.402V565.1Z" stroke="white" stroke-width="0.4755" stroke-miterlimit="10" stroke-linecap="round" stroke-linejoin="round"/>
<g opacity="0.65">
<path opacity="0.65" d="M413.753 558.988C413.753 554.086 416.163 547.417 421.248 544.391" stroke="white" stroke-width="0.4755" stroke-miterlimit="10" stroke-linecap="round" stroke-linejoin="round"/>
<path opacity="0.65" d="M416.427 568.198C415.515 566.577 414.82 564.967 414.376 563.345" stroke="white" stroke-width="0.4755" stroke-miterlimit="10" stroke-linecap="round" stroke-linejoin="round"/>
</g>
</g>
<g opacity="0.65">
<path opacity="0.65" d="M336.437 560.501H314.707V538.569H298.146V560.501H276.416V577.215H298.146V599.147H314.707V577.215H336.437V560.501Z" stroke="white" stroke-width="0.4755" stroke-miterlimit="10" stroke-linecap="round" stroke-linejoin="round"/>
<path opacity="0.65" d="M301.132 542.89V555.296" stroke="white" stroke-width="0.4755" stroke-miterlimit="10" stroke-linecap="round" stroke-linejoin="round"/>
</g>
</g>
<g opacity="0.8">
<g opacity="0.8">
<path opacity="0.8" d="M48.416 672.978C36.7954 672.978 32.0344 682.551 32.0344 682.551C32.0344 682.551 27.2734 672.978 15.6528 672.978C4.03218 672.978 -2 684.391 -2 693.384C-2 707.642 13.3982 719.769 32.0224 733.555C50.6466 719.782 66.0449 707.654 66.0449 693.384C66.0569 684.391 60.0367 672.978 48.416 672.978Z" stroke="white" stroke-width="0.4755" stroke-miterlimit="10" stroke-linecap="round" stroke-linejoin="round"/>
<path opacity="0.8" d="M43.823 699.52H35.7521V691.375H28.3168V699.52H20.2459V707.025H28.3168V715.17H35.7521V707.025H43.823V699.52Z" stroke="white" stroke-width="0.4755" stroke-miterlimit="10" stroke-linecap="round" stroke-linejoin="round"/>
<g opacity="0.8">
<path opacity="0.8" d="M2.16138 693.396C2.16138 688.494 4.57185 681.825 9.65663 678.799" stroke="white" stroke-width="0.4755" stroke-miterlimit="10" stroke-linecap="round" stroke-linejoin="round"/>
<path opacity="0.8" d="M4.83568 702.619C3.92425 700.997 3.22869 699.387 2.78497 697.766" stroke="white" stroke-width="0.4755" stroke-miterlimit="10" stroke-linecap="round" stroke-linejoin="round"/>
</g>
</g>
<g opacity="0.8">
<path opacity="0.8" d="M199.244 694.921H177.502V672.978H160.953V694.921H139.222V711.624H160.953V733.555H177.502V711.624H199.244V694.921Z" stroke="white" stroke-width="0.4755" stroke-miterlimit="10" stroke-linecap="round" stroke-linejoin="round"/>
<path opacity="0.8" d="M163.939 677.311V689.717" stroke="white" stroke-width="0.4755" stroke-miterlimit="10" stroke-linecap="round" stroke-linejoin="round"/>
</g>
<g opacity="0.8">
<path opacity="0.8" d="M322.802 672.978C311.182 672.978 306.421 682.552 306.421 682.552C306.421 682.552 301.66 672.978 290.039 672.978C278.418 672.978 272.386 684.391 272.386 693.384C272.386 707.642 287.784 719.769 306.409 733.555C325.033 719.782 340.431 707.654 340.431 693.384C340.455 684.391 334.423 672.978 322.802 672.978Z" stroke="white" stroke-width="0.4755" stroke-miterlimit="10" stroke-linecap="round" stroke-linejoin="round"/>
<path opacity="0.8" d="M318.209 699.52H310.15V691.375H302.703V699.52H294.644V707.025H302.703V715.17H310.15V707.025H318.209V699.52Z" stroke="white" stroke-width="0.4755" stroke-miterlimit="10" stroke-linecap="round" stroke-linejoin="round"/>
<g opacity="0.8">
<path opacity="0.8" d="M276.559 693.396C276.559 688.494 278.97 681.825 284.055 678.799" stroke="white" stroke-width="0.4755" stroke-miterlimit="10" stroke-linecap="round" stroke-linejoin="round"/>
<path opacity="0.8" d="M279.234 702.619C278.322 700.997 277.627 699.387 277.183 697.766" stroke="white" stroke-width="0.4755" stroke-miterlimit="10" stroke-linecap="round" stroke-linejoin="round"/>
</g>
</g>
<g opacity="0.8">
<path opacity="0.8" d="M473.63 694.921H451.9V672.978H435.339V694.921H413.609V711.624H435.339V733.555H451.9V711.624H473.63V694.921Z" stroke="white" stroke-width="0.4755" stroke-miterlimit="10" stroke-linecap="round" stroke-linejoin="round"/>
<path opacity="0.8" d="M438.325 677.311V689.717" stroke="white" stroke-width="0.4755" stroke-miterlimit="10" stroke-linecap="round" stroke-linejoin="round"/>
</g>
</g>
<g opacity="0.8">
<g opacity="0.8">
<path opacity="0.8" d="M185.609 807.398C173.988 807.398 169.227 816.972 169.227 816.972C169.227 816.972 164.466 807.398 152.846 807.398C141.225 807.398 135.193 818.812 135.193 827.805C135.193 842.062 150.591 854.19 169.215 867.976C187.84 854.202 203.238 842.074 203.238 827.805C203.262 818.8 197.23 807.398 185.609 807.398Z" stroke="white" stroke-width="0.4755" stroke-miterlimit="10" stroke-linecap="round" stroke-linejoin="round"/>
<path opacity="0.8" d="M181.016 833.929H172.945V825.783H165.51V833.929H157.439V841.433H165.51V849.579H172.945V841.433H181.016V833.929Z" stroke="white" stroke-width="0.4755" stroke-miterlimit="10" stroke-linecap="round" stroke-linejoin="round"/>
<g opacity="0.8">
<path opacity="0.8" d="M139.366 827.805C139.366 822.903 141.777 816.234 146.862 813.208" stroke="white" stroke-width="0.4755" stroke-miterlimit="10" stroke-linecap="round" stroke-linejoin="round"/>
<path opacity="0.8" d="M142.029 837.027C141.117 835.405 140.422 833.796 139.978 832.174" stroke="white" stroke-width="0.4755" stroke-miterlimit="10" stroke-linecap="round" stroke-linejoin="round"/>
</g>
</g>
<g opacity="0.8">
<path opacity="0.8" d="M62.0394 829.33H40.3092V807.398H23.7477V829.33H2.01746V846.044H23.7477V867.976H40.3092V846.044H62.0394V829.33Z" stroke="white" stroke-width="0.4755" stroke-miterlimit="10" stroke-linecap="round" stroke-linejoin="round"/>
<path opacity="0.8" d="M26.7458 811.719V824.125" stroke="white" stroke-width="0.4755" stroke-miterlimit="10" stroke-linecap="round" stroke-linejoin="round"/>
</g>
<g opacity="0.8">
<path opacity="0.8" d="M459.995 807.398C448.375 807.398 443.614 816.972 443.614 816.972C443.614 816.972 438.853 807.398 427.232 807.398C415.611 807.398 409.579 818.812 409.579 827.805C409.579 842.062 424.977 854.19 443.602 867.976C462.226 854.202 477.624 842.074 477.624 827.805C477.648 818.8 471.616 807.398 459.995 807.398Z" stroke="white" stroke-width="0.4755" stroke-miterlimit="10" stroke-linecap="round" stroke-linejoin="round"/>
<path opacity="0.8" d="M455.402 833.929H447.343V825.783H439.896V833.929H431.837V841.433H439.896V849.579H447.343V841.433H455.402V833.929Z" stroke="white" stroke-width="0.4755" stroke-miterlimit="10" stroke-linecap="round" stroke-linejoin="round"/>
<g opacity="0.8">
<path opacity="0.8" d="M413.753 827.805C413.753 822.903 416.163 816.234 421.248 813.208" stroke="white" stroke-width="0.4755" stroke-miterlimit="10" stroke-linecap="round" stroke-linejoin="round"/>
<path opacity="0.8" d="M416.427 837.027C415.515 835.405 414.82 833.796 414.376 832.174" stroke="white" stroke-width="0.4755" stroke-miterlimit="10" stroke-linecap="round" stroke-linejoin="round"/>
</g>
</g>
<g opacity="0.8">
<path opacity="0.8" d="M336.437 829.33H314.707V807.398H298.146V829.33H276.416V846.044H298.146V867.976H314.707V846.044H336.437V829.33Z" stroke="white" stroke-width="0.4755" stroke-miterlimit="10" stroke-linecap="round" stroke-linejoin="round"/>
<path opacity="0.8" d="M301.132 811.719V824.125" stroke="white" stroke-width="0.4755" stroke-miterlimit="10" stroke-linecap="round" stroke-linejoin="round"/>
</g>
</g>
</g>
</svg>
