<svg width="35" height="63" viewBox="0 0 35 63" fill="none" xmlns="http://www.w3.org/2000/svg">
<path d="M32.8336 59.8828C32.1747 60.2439 31.5011 60.5806 30.8128 60.8929C30.1441 61.2004 29.4656 61.4834 28.7774 61.7372V60.3415C28.7774 58.9264 27.6254 57.7747 26.2099 57.7747H22.3001C18.6392 57.7747 15.6617 54.7979 15.6617 51.138V41.7881H19.7326V51.138C19.7326 52.5532 20.8845 53.7049 22.3001 53.7049H26.2099C29.7146 53.7049 32.5945 56.4376 32.8336 59.8828Z" fill="#E5312F" stroke="white" stroke-miterlimit="10"/>
<path d="M25.5802 38.4601V45.087C25.5802 46.3508 24.5552 47.3756 23.2909 47.3756H12.0935C10.8293 47.3756 9.80426 46.3508 9.80426 45.087V38.4601H25.5802Z" fill="#E5312F" stroke="white" stroke-miterlimit="10"/>
<path d="M34.1808 5.21329V37.6695C34.1808 39.9435 32.3358 41.7881 30.0611 41.7881H5.31846C3.04383 41.7881 1.19875 39.9435 1.19875 37.6695V5.21329C5.99694 2.27071 11.6445 0.57251 17.6922 0.57251C23.74 0.57251 29.3827 2.26583 34.1808 5.21329Z" fill="#E5312F" stroke="white" stroke-miterlimit="10"/>
<path d="M21.1725 29.8422C20.2011 30.7596 18.9467 31.2134 17.6922 31.2134C16.4378 31.2134 15.1833 30.7547 14.2119 29.8422C12.2644 28.0122 12.0886 25.0354 13.6897 23.0005C14.3437 22.1709 14.9539 21.3121 15.5591 20.4435L17.2041 18.0767C17.3213 17.9059 17.5116 17.8181 17.6971 17.8181C17.8826 17.8181 18.0681 17.9059 18.1901 18.0767L19.8351 20.4435C20.4403 21.3121 21.0505 22.1709 21.7045 23.0005C23.2958 25.0403 23.1201 28.0122 21.1725 29.8422Z" fill="white"/>
</svg>
