<svg width="154" height="52" viewBox="0 0 154 52" fill="none" xmlns="http://www.w3.org/2000/svg">
<g clip-path="url(#clip0)">
<path d="M20.7229 37.9745C20.307 38.2035 19.8818 38.417 19.4474 38.615C19.0254 38.81 18.5972 38.9895 18.1628 39.1504V38.2654C18.1628 37.3679 17.4357 36.6376 16.5423 36.6376H14.0746C11.7641 36.6376 9.88483 34.7499 9.88483 32.429V26.4998H12.4542V32.429C12.4542 33.3264 13.1812 34.0567 14.0746 34.0567H16.5423C18.7543 34.0567 20.5719 35.7897 20.7229 37.9745Z" fill="#E5312F" stroke="white" stroke-miterlimit="10"/>
<path d="M16.1449 24.3893V28.5917C16.1449 29.3932 15.4979 30.0431 14.7 30.0431H7.63281C6.8349 30.0431 6.18794 29.3932 6.18794 28.5917V24.3893H16.1449Z" fill="#E5312F" stroke="white" stroke-miterlimit="10"/>
<path d="M21.5732 3.30599V23.888C21.5732 25.33 20.4086 26.4998 18.973 26.4998H3.35674C1.92111 26.4998 0.756592 25.33 0.756592 23.888V3.30599C3.78496 1.43996 7.34938 0.363052 11.1664 0.363052C14.9835 0.363052 18.5448 1.43687 21.5732 3.30599Z" fill="#E5312F" stroke="white" stroke-miterlimit="10"/>
<path d="M13.363 18.9243C12.7499 19.5061 11.9582 19.7939 11.1664 19.7939C10.3747 19.7939 9.58291 19.503 8.96984 18.9243C7.74063 17.7638 7.62973 15.8761 8.64021 14.5857C9.05303 14.0596 9.43811 13.515 9.82013 12.9641L10.8583 11.4633C10.9323 11.355 11.0524 11.2993 11.1695 11.2993C11.2866 11.2993 11.4036 11.355 11.4806 11.4633L12.5189 12.9641C12.9009 13.515 13.286 14.0596 13.6988 14.5857C14.7031 15.8792 14.5922 17.7638 13.363 18.9243Z" fill="white"/>
<path d="M20.0944 6.13133C20.0944 6.13133 14.2872 4.55619 9.03146 6.07562C4.8817 7.27631 1.62228 6.24582 1.62228 6.24582V4.0394C4.31177 2.3838 7.47261 1.42758 10.8583 1.42758C14.2441 1.42758 17.4049 2.38071 20.0944 4.0394V5.62382" fill="white"/>
<path d="M32.6792 1.76489H41.8876C49.5186 1.76489 54.001 6.01683 54.001 11.1631C54.001 14.3288 52.3775 17.0985 49.7681 18.3332L49.8174 18.6303C53.4126 19.7196 55.677 23.0803 55.677 26.9887C55.677 32.1814 51.1976 36.3869 43.6128 36.3869H32.6823V1.76489H32.6792ZM39.5246 7.4032V16.2073H42.7255C45.5321 16.2073 47.1556 14.3784 47.1556 11.6087C47.1556 9.38372 45.3842 7.40629 42.3312 7.40629H39.5246V7.4032ZM39.5246 21.4494V30.7981H44.0533C46.9092 30.7981 48.8285 29.1178 48.8285 26.4967C48.8285 23.529 47.1556 21.4525 44.4477 21.4525H39.5246V21.4494Z" fill="#255ECE"/>
<path d="M70.1503 36.8326C63.502 36.8326 60.7448 33.9144 60.7448 28.1275V0.282593H67.5902V27.4344C67.5902 29.7089 68.6253 30.7486 70.5446 30.8972L70.1503 36.8326Z" fill="#255ECE"/>
<path d="M85.5109 11.1631C92.9447 11.1631 97.5258 16.8509 97.5258 24.021C97.5258 31.1912 92.9478 36.879 85.5109 36.879C78.0277 36.879 73.5453 31.1912 73.5453 24.021C73.5453 16.8509 78.0277 11.1631 85.5109 11.1631ZM85.5109 31.2933C89.1061 31.2933 90.6803 28.2761 90.6803 24.0241C90.6803 19.8712 89.1061 16.8045 85.5109 16.8045C81.9156 16.8045 80.3907 19.8712 80.3907 24.0241C80.3907 28.2761 81.9156 31.2933 85.5109 31.2933Z" fill="#255ECE"/>
<path d="M112.637 11.1631C120.071 11.1631 124.652 16.8509 124.652 24.021C124.652 31.1912 120.074 36.879 112.637 36.879C105.154 36.879 100.671 31.1912 100.671 24.021C100.671 16.8509 105.154 11.1631 112.637 11.1631ZM112.637 31.2933C116.232 31.2933 117.806 28.2761 117.806 24.0241C117.806 19.8712 116.232 16.8045 112.637 16.8045C109.042 16.8045 107.517 19.8712 107.517 24.0241C107.517 28.2761 109.045 31.2933 112.637 31.2933Z" fill="#255ECE"/>
<path d="M143.706 12.9425L143.953 12.8435V0.282593H150.795V36.3869H143.953V34.5085L143.657 34.4095C142.477 35.8423 140.407 36.8821 137.945 36.8821C132.184 36.8821 128.638 31.1943 128.638 24.0241C128.638 16.854 132.332 11.1662 138.386 11.1662C140.85 11.1631 142.523 11.9058 143.706 12.9425ZM143.953 28.6227V18.1383C142.72 17.2965 141.047 16.8014 139.227 16.8014C136.617 16.8014 135.484 19.8186 135.484 24.021C135.484 28.2235 136.617 31.2902 139.227 31.2902C141.097 31.2933 142.819 30.6001 143.953 28.6227Z" fill="#255ECE"/>
<path d="M96.2873 51.5627C95.9762 51.6896 95.5633 51.7639 95.1505 51.7639C93.9768 51.7639 93.3267 51.1357 93.3267 49.9566V47.0075H92.2885V45.9151H93.3267V44.3214L94.4265 43.6561H94.6761V45.9151H96.2627V47.0075H94.6761V49.5915C94.6761 50.3187 94.8887 50.557 95.4863 50.557C95.6989 50.557 95.8991 50.5075 96.1363 50.4053L96.2349 50.4549L96.2873 51.5627Z" fill="#E5312F"/>
<path d="M97.5504 45.9151H98.8104V46.9828C99.2725 46.0668 99.8733 45.6768 100.585 45.6768C101.173 45.6768 101.623 46.0018 101.845 46.7321L100.72 47.3603L100.606 47.3355C100.48 47.023 100.308 46.9085 100.03 46.9085C99.4697 46.9085 98.9059 47.6357 98.9059 48.9416V51.5256H97.5442V45.9151H97.5504Z" fill="#E5312F"/>
<path d="M107.705 50.6839V51.5875C107.393 51.6741 107.156 51.7267 106.793 51.7267C106.155 51.7267 105.831 51.4142 105.754 50.9376C105.194 51.5132 104.618 51.767 103.894 51.767C102.883 51.767 102.258 51.1759 102.258 50.2878C102.258 49.2449 103.182 48.5424 105.656 48.2051V47.8802C105.656 47.1653 105.345 46.8249 104.769 46.8249C104.18 46.8249 103.681 47.1499 103.268 47.7285L103.17 47.7409L102.332 47.1622C102.855 46.271 103.832 45.683 104.941 45.683C106.254 45.683 107.014 46.3855 107.014 47.7038V50.4023C107.014 50.6529 107.076 50.7272 107.264 50.7272C107.366 50.7272 107.452 50.7024 107.6 50.6405L107.705 50.6839ZM104.334 50.82C104.833 50.82 105.271 50.6065 105.659 50.229V48.9633C104.146 49.2387 103.598 49.5915 103.598 50.1671C103.595 50.5694 103.844 50.82 104.334 50.82Z" fill="#E5312F"/>
<path d="M110.255 45.9151V46.8683C110.73 46.0915 111.429 45.6768 112.255 45.6768C113.555 45.6768 114.316 46.466 114.316 47.8987V51.5256H112.954V48.4001C112.954 47.3201 112.566 46.8806 111.768 46.8806C110.881 46.8806 110.283 47.6326 110.283 48.7497V51.5225H108.921V45.9151H110.255Z" fill="#E5312F"/>
<path d="M115.551 50.4951L116.438 49.904L116.512 49.9164C116.824 50.4301 117.273 50.7334 117.837 50.7334C118.41 50.7334 118.774 50.4703 118.774 50.0804C118.774 49.7679 118.586 49.5048 117.588 49.1521C116.177 48.6384 115.788 48.0968 115.788 47.3201C115.788 46.4041 116.574 45.6768 117.874 45.6768C118.9 45.6768 119.686 46.1534 119.997 46.893L119.183 47.4315L119.085 47.4191C118.872 46.9673 118.459 46.7042 117.923 46.7042C117.412 46.7042 117.113 46.9549 117.113 47.2953C117.113 47.5955 117.252 47.809 118.312 48.2113C119.673 48.725 120.098 49.2263 120.098 50.068C120.098 51.0459 119.223 51.7608 117.886 51.7608C116.824 51.7639 116.013 51.3244 115.551 50.4951Z" fill="#E5312F"/>
<path d="M124.02 43.3807C123.521 43.3807 123.321 43.6685 123.321 44.6092V45.9151H124.609V47.0075H123.321V51.5256H121.959V47.0075H120.921V45.9151H121.959V44.6742C121.959 42.8298 122.508 42.1769 123.795 42.1769C124.094 42.1769 124.458 42.2388 124.756 42.3285L124.695 43.458L124.569 43.5075C124.368 43.4178 124.171 43.3807 124.02 43.3807Z" fill="#E5312F"/>
<path d="M129.442 51.5256V50.5848C128.98 51.3616 128.268 51.7639 127.508 51.7639C126.272 51.7639 125.533 50.9748 125.533 49.4925V45.9182H126.894V49.1056C126.894 50.1207 127.27 50.5601 128.007 50.5601C128.832 50.5601 129.43 49.8329 129.43 48.6786V45.9182H130.792V51.5256H129.442Z" fill="#E5312F"/>
<path d="M132.027 50.4951L132.914 49.904L132.988 49.9164C133.299 50.4301 133.749 50.7334 134.313 50.7334C134.886 50.7334 135.249 50.4703 135.249 50.0804C135.249 49.7679 135.062 49.5048 134.063 49.1521C132.652 48.6384 132.264 48.0968 132.264 47.3201C132.264 46.4041 133.05 45.6768 134.35 45.6768C135.376 45.6768 136.161 46.1534 136.472 46.893L135.659 47.4315L135.561 47.4191C135.348 46.9673 134.935 46.7042 134.399 46.7042C133.888 46.7042 133.589 46.9549 133.589 47.2953C133.589 47.5955 133.728 47.809 134.787 48.2113C136.149 48.725 136.574 49.2263 136.574 50.068C136.574 51.0459 135.699 51.7608 134.362 51.7608C133.302 51.7639 132.489 51.3244 132.027 50.4951Z" fill="#E5312F"/>
<path d="M137.748 43.4054C137.748 42.9289 138.136 42.5637 138.647 42.5637C139.147 42.5637 139.535 42.9289 139.535 43.4178C139.535 43.9067 139.147 44.2595 138.647 44.2595C138.136 44.2595 137.748 43.9098 137.748 43.4054ZM137.96 45.9151H139.322V51.5225H137.96V45.9151Z" fill="#E5312F"/>
<path d="M140.733 48.7126C140.733 46.9951 142.058 45.6768 143.857 45.6768C145.644 45.6768 146.965 46.9951 146.965 48.7126C146.965 50.4301 145.628 51.7608 143.857 51.7608C142.07 51.7639 140.733 50.4332 140.733 48.7126ZM145.591 48.7126C145.591 47.6852 144.855 46.8806 143.857 46.8806C142.859 46.8806 142.119 47.6821 142.119 48.7126C142.119 49.7555 142.868 50.557 143.857 50.557C144.831 50.557 145.591 49.7555 145.591 48.7126Z" fill="#E5312F"/>
<path d="M149.717 45.9151V46.8683C150.191 46.0915 150.89 45.6768 151.716 45.6768C153.016 45.6768 153.777 46.466 153.777 47.8987V51.5256H152.415V48.4001C152.415 47.3201 152.027 46.8806 151.229 46.8806C150.342 46.8806 149.744 47.6326 149.744 48.7497V51.5225H148.383V45.9151H149.717Z" fill="#E5312F"/>
</g>
<defs>
<clipPath id="clip0">
<rect width="154" height="52" fill="white"/>
</clipPath>
</defs>
</svg>
