<svg width="90" height="31" viewBox="0 0 90 31" fill="none" xmlns="http://www.w3.org/2000/svg">
<g clip-path="url(#clip0)">
<path d="M12.1108 22.6387C11.8677 22.7752 11.6193 22.9025 11.3654 23.0205C11.1187 23.1368 10.8685 23.2438 10.6146 23.3397V22.8121C10.6146 22.2771 10.1897 21.8417 9.66759 21.8417H8.22545C6.87512 21.8417 5.77686 20.7163 5.77686 19.3327V15.798H7.27842V19.3327C7.27842 19.8677 7.70332 20.3031 8.22545 20.3031H9.66759C10.9603 20.3031 12.0226 21.3362 12.1108 22.6387Z" fill="#E5312F" stroke="white" stroke-miterlimit="10"/>
<path d="M9.43534 14.5398V17.0451C9.43534 17.5229 9.05724 17.9103 8.59093 17.9103H4.46074C3.99442 17.9103 3.61633 17.5229 3.61633 17.0451V14.5398H9.43534Z" fill="#E5312F" stroke="white" stroke-miterlimit="10"/>
<path d="M12.6077 1.97087V14.2409C12.6077 15.1006 11.9271 15.7979 11.0881 15.7979H1.9617C1.1227 15.7979 0.442139 15.1006 0.442139 14.2409V1.97087C2.21196 0.858434 4.29507 0.216431 6.5258 0.216431C8.75654 0.216431 10.8378 0.856589 12.6077 1.97087Z" fill="#E5312F" stroke="white" stroke-miterlimit="10"/>
<path d="M7.80953 11.2818C7.45125 11.6286 6.98854 11.8002 6.52583 11.8002C6.06312 11.8002 5.60041 11.6268 5.24212 11.2818C4.52375 10.59 4.45893 9.4646 5.04948 8.6953C5.29073 8.38168 5.51578 8.05699 5.73904 7.72861L6.34578 6.83386C6.389 6.76929 6.45921 6.73608 6.52763 6.73608C6.59604 6.73608 6.66446 6.76929 6.70947 6.83386L7.31622 7.72861C7.53947 8.05699 7.76453 8.38168 8.00578 8.6953C8.59272 9.46645 8.52791 10.59 7.80953 11.2818Z" fill="white"/>
<path d="M11.7435 3.65523C11.7435 3.65523 8.3497 2.7162 5.27816 3.62202C2.85298 4.33782 0.94812 3.72349 0.94812 3.72349V2.40812C2.5199 1.42113 4.36714 0.851074 6.34582 0.851074C8.32449 0.851074 10.1717 1.41928 11.7435 2.40812V3.35267" fill="white"/>
<path d="M19.0983 1.05212H24.4798C28.9394 1.05212 31.5591 3.58693 31.5591 6.6549C31.5591 8.54217 30.6102 10.1933 29.0853 10.9294L29.1141 11.1065C31.2152 11.7559 32.5385 13.7594 32.5385 16.0894C32.5385 19.1851 29.9207 21.6922 25.488 21.6922H19.1001V1.05212H19.0983ZM23.0988 4.41342V9.66199H24.9695C26.6097 9.66199 27.5585 8.57169 27.5585 6.92056C27.5585 5.59412 26.5232 4.41527 24.739 4.41527H23.0988V4.41342ZM23.0988 12.7871V18.3604H25.7455C27.4145 18.3604 28.5361 17.3587 28.5361 15.7961C28.5361 14.0269 27.5585 12.789 25.9759 12.789H23.0988V12.7871Z" fill="white"/>
<path d="M40.9969 21.9579C37.1116 21.9579 35.5002 20.2182 35.5002 16.7683V0.168457H39.5007V16.3551C39.5007 17.711 40.1057 18.3309 41.2274 18.4195L40.9969 21.9579Z" fill="white"/>
<path d="M49.9739 6.65491C54.3184 6.65491 56.9956 10.0457 56.9956 14.3202C56.9956 18.5947 54.3202 21.9855 49.9739 21.9855C45.6006 21.9855 42.981 18.5947 42.981 14.3202C42.981 10.0457 45.6006 6.65491 49.9739 6.65491ZM49.9739 18.6556C52.075 18.6556 52.995 16.8569 52.995 14.3221C52.995 11.8463 52.075 10.0181 49.9739 10.0181C47.8728 10.0181 46.9816 11.8463 46.9816 14.3221C46.9816 16.8569 47.8728 18.6556 49.9739 18.6556Z" fill="white"/>
<path d="M65.8267 6.65491C70.1712 6.65491 72.8484 10.0457 72.8484 14.3202C72.8484 18.5947 70.173 21.9855 65.8267 21.9855C61.4535 21.9855 58.8339 18.5947 58.8339 14.3202C58.8339 10.0457 61.4535 6.65491 65.8267 6.65491ZM65.8267 18.6556C67.9278 18.6556 68.8479 16.8569 68.8479 14.3221C68.8479 11.8463 67.9278 10.0181 65.8267 10.0181C63.7256 10.0181 62.8344 11.8463 62.8344 14.3221C62.8344 16.8569 63.7274 18.6556 65.8267 18.6556Z" fill="white"/>
<path d="M83.9841 7.7157L84.1281 7.65666V0.168457H88.1269V21.6922H84.1281V20.5724L83.9553 20.5133C83.2657 21.3675 82.0558 21.9874 80.6173 21.9874C77.2505 21.9874 75.1782 18.5966 75.1782 14.3221C75.1782 10.0476 77.3369 6.65676 80.8747 6.65676C82.3151 6.65492 83.2927 7.09768 83.9841 7.7157ZM84.1281 17.0635V10.8132C83.408 10.3114 82.4303 10.0162 81.3663 10.0162C79.8413 10.0162 79.1787 11.8149 79.1787 14.3202C79.1787 16.8255 79.8413 18.6538 81.3663 18.6538C82.4591 18.6556 83.4656 18.2424 84.1281 17.0635Z" fill="white"/>
<path d="M56.2718 30.7393C56.09 30.815 55.8487 30.8592 55.6075 30.8592C54.9215 30.8592 54.5416 30.4847 54.5416 29.7819V28.0237H53.9349V27.3725H54.5416V26.4224L55.1844 26.0258H55.3302V27.3725H56.2574V28.0237H55.3302V29.5642C55.3302 29.9977 55.4544 30.1398 55.8037 30.1398C55.928 30.1398 56.045 30.1102 56.1836 30.0493L56.2412 30.0789L56.2718 30.7393Z" fill="white"/>
<path d="M57.01 27.3725H57.7464V28.0089C58.0165 27.4629 58.3675 27.2304 58.7834 27.2304C59.1273 27.2304 59.3902 27.4241 59.5198 27.8595L58.8627 28.234L58.7961 28.2192C58.7222 28.0329 58.6214 27.9647 58.4594 27.9647C58.1317 27.9647 57.8022 28.3982 57.8022 29.1767V30.7171H57.0064V27.3725H57.01Z" fill="white"/>
<path d="M62.9442 30.2154V30.7541C62.7624 30.8057 62.6237 30.8371 62.4113 30.8371C62.0386 30.8371 61.8496 30.6508 61.8045 30.3667C61.4769 30.7098 61.1402 30.8611 60.7171 30.8611C60.1265 30.8611 59.761 30.5087 59.761 29.9792C59.761 29.3575 60.3012 28.9388 61.7469 28.7377V28.544C61.7469 28.1178 61.5651 27.9149 61.2284 27.9149C60.8845 27.9149 60.5929 28.1086 60.3516 28.4536L60.294 28.4609L59.8043 28.116C60.1103 27.5846 60.6811 27.2341 61.3292 27.2341C62.0962 27.2341 62.5409 27.6529 62.5409 28.4388V30.0475C62.5409 30.1969 62.5769 30.2412 62.6868 30.2412C62.7462 30.2412 62.7966 30.2265 62.883 30.1896L62.9442 30.2154ZM60.9745 30.2966C61.2662 30.2966 61.5219 30.1693 61.7487 29.9442V29.1897C60.8647 29.3538 60.5442 29.5642 60.5442 29.9073C60.5424 30.1471 60.6883 30.2966 60.9745 30.2966Z" fill="white"/>
<path d="M64.435 27.3725V27.9407C64.7123 27.4776 65.1209 27.2304 65.6035 27.2304C66.3632 27.2304 66.808 27.7008 66.808 28.555V30.7171H66.0122V28.8539C66.0122 28.21 65.7853 27.9481 65.319 27.9481C64.8005 27.9481 64.4512 28.3963 64.4512 29.0623V30.7153H63.6554V27.3725H64.435Z" fill="white"/>
<path d="M67.53 30.1028L68.0485 29.7505L68.0917 29.7578C68.2735 30.0641 68.5364 30.2449 68.8659 30.2449C69.2007 30.2449 69.4132 30.0881 69.4132 29.8556C69.4132 29.6693 69.3034 29.5125 68.72 29.3022C67.8954 28.9959 67.6686 28.6731 67.6686 28.21C67.6686 27.6639 68.1277 27.2304 68.8875 27.2304C69.487 27.2304 69.9461 27.5145 70.128 27.9554L69.6526 28.2764L69.595 28.2691C69.4708 27.9997 69.2296 27.8429 68.9163 27.8429C68.6174 27.8429 68.4428 27.9923 68.4428 28.1953C68.4428 28.3742 68.5238 28.5015 69.1431 28.7413C69.9389 29.0476 70.1874 29.3464 70.1874 29.8482C70.1874 30.4312 69.6761 30.8574 68.8947 30.8574C68.2735 30.8592 67.8 30.5972 67.53 30.1028Z" fill="white"/>
<path d="M72.4794 25.8616C72.1877 25.8616 72.0707 26.0331 72.0707 26.594V27.3725H72.8232V28.0237H72.0707V30.7172H71.2749V28.0237H70.6681V27.3725H71.2749V26.6327C71.2749 25.5332 71.5953 25.1439 72.3479 25.1439C72.5226 25.1439 72.735 25.1808 72.9097 25.2343L72.8736 25.9077L72.7998 25.9372C72.6828 25.8837 72.5676 25.8616 72.4794 25.8616Z" fill="white"/>
<path d="M75.6481 30.7172V30.1564C75.378 30.6194 74.9621 30.8592 74.5174 30.8592C73.7954 30.8592 73.3633 30.3888 73.3633 29.5051V27.3743H74.1591V29.2745C74.1591 29.8796 74.3788 30.1416 74.8091 30.1416C75.2916 30.1416 75.6409 29.7081 75.6409 29.0199V27.3743H76.4367V30.7172H75.6481Z" fill="white"/>
<path d="M77.1587 30.1028L77.6772 29.7505L77.7204 29.7578C77.9022 30.0641 78.1651 30.2449 78.4946 30.2449C78.8295 30.2449 79.0419 30.0881 79.0419 29.8556C79.0419 29.6693 78.9321 29.5125 78.3487 29.3022C77.5241 28.9959 77.2973 28.6731 77.2973 28.21C77.2973 27.6639 77.7564 27.2304 78.5162 27.2304C79.1157 27.2304 79.5748 27.5145 79.7567 27.9554L79.2814 28.2764L79.2238 28.2691C79.0995 27.9997 78.8583 27.8429 78.545 27.8429C78.2461 27.8429 78.0715 27.9923 78.0715 28.1953C78.0715 28.3742 78.1525 28.5015 78.7718 28.7413C79.5676 29.0476 79.8161 29.3464 79.8161 29.8482C79.8161 30.4312 79.3048 30.8574 78.5234 30.8574C77.904 30.8592 77.4287 30.5972 77.1587 30.1028Z" fill="white"/>
<path d="M80.5021 25.8763C80.5021 25.5922 80.729 25.3745 81.0278 25.3745C81.3195 25.3745 81.5463 25.5922 81.5463 25.8837C81.5463 26.1752 81.3195 26.3855 81.0278 26.3855C80.729 26.3855 80.5021 26.177 80.5021 25.8763ZM80.6263 27.3725H81.4221V30.7153H80.6263V27.3725Z" fill="white"/>
<path d="M82.2466 29.0402C82.2466 28.0163 83.0208 27.2304 84.0723 27.2304C85.1165 27.2304 85.8889 28.0163 85.8889 29.0402C85.8889 30.0641 85.1075 30.8574 84.0723 30.8574C83.028 30.8592 82.2466 30.0659 82.2466 29.0402ZM85.0859 29.0402C85.0859 28.4277 84.6556 27.9481 84.0723 27.9481C83.4889 27.9481 83.0568 28.4259 83.0568 29.0402C83.0568 29.6619 83.4944 30.1397 84.0723 30.1397C84.6412 30.1397 85.0859 29.6619 85.0859 29.0402Z" fill="white"/>
<path d="M87.4968 27.3725V27.9407C87.774 27.4776 88.1827 27.2304 88.6652 27.2304C89.425 27.2304 89.8697 27.7008 89.8697 28.555V30.7171H89.0739V28.8539C89.0739 28.21 88.8471 27.9481 88.3808 27.9481C87.8622 27.9481 87.513 28.3963 87.513 29.0623V30.7153H86.7172V27.3725H87.4968Z" fill="white"/>
</g>
<defs>
<clipPath id="clip0">
<rect width="90" height="31" fill="white"/>
</clipPath>
</defs>
</svg>
