<?xml version="1.0" standalone="no"?>
<!DOCTYPE svg PUBLIC "-//W3C//DTD SVG 20010904//EN"
 "http://www.w3.org/TR/2001/REC-SVG-20010904/DTD/svg10.dtd">
<svg version="1.0" xmlns="http://www.w3.org/2000/svg"
 width="1008.000000pt" height="1008.000000pt" viewBox="0 0 1008.000000 1008.000000"
 preserveAspectRatio="xMidYMid meet">
<metadata>
Created by potrace 1.11, written by Peter Selinger 2001-2013
</metadata>
<g transform="translate(0.000000,1008.000000) scale(0.100000,-0.100000)"
fill="#000000" stroke="none">
<path d="M4797 10064 c-1 -1 -47 -5 -102 -9 -55 -3 -111 -8 -125 -10 -22 -4
-113 -14 -180 -20 -14 -1 -25 -3 -25 -5 0 -1 -11 -3 -25 -5 -89 -10 -144 -19
-300 -51 -170 -35 -384 -89 -468 -118 -23 -9 -44 -16 -47 -16 -8 -1 -39 -11
-63 -21 -13 -5 -32 -9 -42 -9 -11 0 -20 -4 -20 -10 0 -5 -3 -9 -7 -8 -11 3
-116 -33 -130 -45 -7 -5 -13 -7 -13 -4 0 4 -28 -5 -62 -20 -35 -14 -76 -31
-93 -38 -151 -63 -417 -193 -552 -272 -54 -31 -107 -61 -118 -67 -11 -6 -32
-19 -47 -29 l-27 -18 3 -2672 c1 -1470 5 -2685 10 -2702 27 -112 97 -275 117
-275 5 0 9 -6 9 -13 0 -23 123 -142 195 -188 70 -45 178 -95 225 -103 14 -3
25 -5 25 -6 0 -9 137 -13 437 -14 l357 -1 1 -255 c0 -276 6 -319 55 -408 33
-62 102 -133 158 -167 98 -57 110 -59 427 -65 l295 -5 1 -310 c1 -290 4 -344
21 -420 4 -16 7 -34 8 -40 6 -47 60 -198 98 -270 49 -93 136 -213 203 -279 45
-46 142 -126 152 -126 6 0 12 -3 14 -7 16 -37 278 -157 384 -177 16 -2 40 -7
54 -11 58 -13 155 -17 515 -19 417 -3 428 -4 509 -62 115 -84 142 -164 141
-423 0 -100 0 -181 2 -181 10 0 151 55 161 62 6 6 12 8 12 5 0 -5 53 16 172
67 21 9 40 16 43 16 3 0 99 48 214 106 l209 105 -3 32 c-9 84 -15 134 -19 152
-18 85 -30 127 -47 175 -24 63 -91 202 -108 222 -6 7 -26 35 -43 62 -45 70
-192 213 -278 271 -114 77 -279 152 -373 169 -15 3 -35 7 -45 10 -46 15 -117
18 -497 21 -299 2 -420 7 -450 16 -116 37 -208 137 -230 249 -5 27 -10 488 -6
573 1 16 21 17 266 17 252 0 353 8 383 32 6 6 12 8 12 4 0 -3 23 8 52 26 57
35 134 108 149 141 6 12 19 38 29 57 34 64 42 135 42 387 0 175 3 243 12 244
6 0 173 2 371 4 198 1 371 6 385 10 14 3 35 8 47 10 12 2 27 6 32 10 6 3 21 8
32 10 36 7 162 75 209 113 86 69 200 205 200 239 0 7 3 13 8 13 7 0 14 18 55
140 l22 65 0 2684 0 2685 -80 47 c-44 27 -89 54 -100 60 -11 7 -20 10 -20 8 0
-2 -13 6 -30 17 -28 20 -348 184 -359 184 -2 0 -35 14 -73 31 -69 31 -92 41
-138 59 -14 6 -35 14 -47 19 -69 28 -129 49 -278 98 -91 29 -174 56 -185 58
-11 2 -20 4 -20 5 0 1 -7 3 -15 5 -8 2 -24 6 -35 9 -134 34 -217 53 -315 72
-14 3 -41 9 -60 14 -19 5 -55 11 -80 14 -25 3 -54 8 -66 10 -12 2 -45 8 -75
11 -30 4 -65 9 -79 12 -14 2 -43 5 -65 7 -22 3 -69 7 -105 10 -36 4 -90 9
-120 13 -54 6 -637 12 -643 7z"/>
</g>
</svg>
